<!-- Sophia 标志。S 取自 Barlow Condensed 700（SIL OFL 1.1）的字形轮廓；灰阶取自 docs/DESIGN.md。由脚本生成，勿手改。 --><svg xmlns="http://www.w3.org/2000/svg" viewBox="0 0 1024 1024"><rect x="100" y="100" width="824" height="824" rx="186" ry="186" fill="#000000"/><path d="M30 175V204Q30 209 33.5 212.5Q37 216 42 216H157Q162 216 165.5 212.5Q169 209 169 204V182Q169 151 185.0 132.0Q201 113 225 113Q249 113 265.0 131.0Q281 149 281 178Q281 208 261.0 229.5Q241 251 183 293Q133 329 102.0 357.0Q71 385 49.0 426.0Q27 467 27 521Q27 606 80.0 657.0Q133 708 220 708Q308 708 361.5 655.0Q415 602 415 516V492Q415 487 411.5 483.5Q408 480 403 480H288Q283 480 279.5 483.5Q276 487 276 492V519Q276 550 260.5 568.5Q245 587 220 587Q196 587 181.0 569.5Q166 552 166 521Q166 491 185.0 468.0Q204 445 260 404Q322 358 353.5 329.5Q385 301 402.5 266.5Q420 232 420 184Q420 96 366.0 44.0Q312 -8 224 -8Q166 -8 122.0 15.0Q78 38 54.0 79.5Q30 121 30 175Z" transform="translate(437.0 540.0) scale(0.8380 -0.8380) translate(-223.5 -350.0)" fill="#5a5a5f"/><path d="M30 175V204Q30 209 33.5 212.5Q37 216 42 216H157Q162 216 165.5 212.5Q169 209 169 204V182Q169 151 185.0 132.0Q201 113 225 113Q249 113 265.0 131.0Q281 149 281 178Q281 208 261.0 229.5Q241 251 183 293Q133 329 102.0 357.0Q71 385 49.0 426.0Q27 467 27 521Q27 606 80.0 657.0Q133 708 220 708Q308 708 361.5 655.0Q415 602 415 516V492Q415 487 411.5 483.5Q408 480 403 480H288Q283 480 279.5 483.5Q276 487 276 492V519Q276 550 260.5 568.5Q245 587 220 587Q196 587 181.0 569.5Q166 552 166 521Q166 491 185.0 468.0Q204 445 260 404Q322 358 353.5 329.5Q385 301 402.5 266.5Q420 232 420 184Q420 96 366.0 44.0Q312 -8 224 -8Q166 -8 122.0 15.0Q78 38 54.0 79.5Q30 121 30 175Z" transform="translate(587.0 484.0) scale(0.8380 -0.8380) translate(-223.5 -350.0)" fill="#ffffff"/><defs><clipPath id="s-main"><path d="M30 175V204Q30 209 33.5 212.5Q37 216 42 216H157Q162 216 165.5 212.5Q169 209 169 204V182Q169 151 185.0 132.0Q201 113 225 113Q249 113 265.0 131.0Q281 149 281 178Q281 208 261.0 229.5Q241 251 183 293Q133 329 102.0 357.0Q71 385 49.0 426.0Q27 467 27 521Q27 606 80.0 657.0Q133 708 220 708Q308 708 361.5 655.0Q415 602 415 516V492Q415 487 411.5 483.5Q408 480 403 480H288Q283 480 279.5 483.5Q276 487 276 492V519Q276 550 260.5 568.5Q245 587 220 587Q196 587 181.0 569.5Q166 552 166 521Q166 491 185.0 468.0Q204 445 260 404Q322 358 353.5 329.5Q385 301 402.5 266.5Q420 232 420 184Q420 96 366.0 44.0Q312 -8 224 -8Q166 -8 122.0 15.0Q78 38 54.0 79.5Q30 121 30 175Z" transform="translate(587.0 484.0) scale(0.8380 -0.8380) translate(-223.5 -350.0)" /></clipPath></defs><g clip-path="url(#s-main)"><path d="M30 175V204Q30 209 33.5 212.5Q37 216 42 216H157Q162 216 165.5 212.5Q169 209 169 204V182Q169 151 185.0 132.0Q201 113 225 113Q249 113 265.0 131.0Q281 149 281 178Q281 208 261.0 229.5Q241 251 183 293Q133 329 102.0 357.0Q71 385 49.0 426.0Q27 467 27 521Q27 606 80.0 657.0Q133 708 220 708Q308 708 361.5 655.0Q415 602 415 516V492Q415 487 411.5 483.5Q408 480 403 480H288Q283 480 279.5 483.5Q276 487 276 492V519Q276 550 260.5 568.5Q245 587 220 587Q196 587 181.0 569.5Q166 552 166 521Q166 491 185.0 468.0Q204 445 260 404Q322 358 353.5 329.5Q385 301 402.5 266.5Q420 232 420 184Q420 96 366.0 44.0Q312 -8 224 -8Q166 -8 122.0 15.0Q78 38 54.0 79.5Q30 121 30 175Z" transform="translate(437.0 540.0) scale(0.8380 -0.8380) translate(-223.5 -350.0)" fill="#c8c8d0"/></g></svg>
